# xmcd
#
# Track frame offsets:
#   150
#   14423
#   32342
#   48098
#   62611
#   76406
#   91442
#   107621
#   125725
#   140551
#   158188
#   169935
#
# Disc length: 2527 seconds
#
# Revision: 0
# Processed by: cddbd v1.5PL3 Copyright (c) Steve Scherf et al.
# Submitted via: Media_Universe 3.0
#
DISCID=9609dd0c
DTITLE=Terri Clark - Terri Clark
DYEAR=1900
DGENRE=Country
TTITLE0=Better Things To Do
TTITLE1=If I Were You
TTITLE2=Catch 22
TTITLE3=Is Fort Worth Worth It
TTITLE4=When Boy Meets Girl
TTITLE5=Tyin' A Heart To A Tumbleweed
TTITLE6=When We Had It Bad
TTITLE7=Suddenly Single
TTITLE8=Flowers After The Fact
TTITLE9=The Inside Story
TTITLE10=Was There A Girl On Your Boys Night Out
TTITLE11=You Are The Love Of My Life
EXTD=
EXTT0=
EXTT1=
EXTT2=
EXTT3=
EXTT4=
EXTT5=
EXTT6=
EXTT7=
EXTT8=
EXTT9=
EXTT10=
EXTT11=
PLAYORDER=
